<?xml version="1.0" encoding="UTF-8"?>
<svg id="Layer_1" data-name="Layer 1" xmlns="http://www.w3.org/2000/svg" viewBox="0 0 1252.8 633.29">
  <defs>
    <style>
      .cls-1, .cls-2 {
        stroke-width: 0px;
      }

      .cls-2 {
        fill: gray;
      }
    </style>
  </defs>
  <g>
    <path class="cls-1" d="m1135.11,38.46c.11-11.38.14-23.78.16-35.16h-4.39c-.32,14.3.05,31.76-.31,46.14h4.55v-10.98Z"/>
    <path class="cls-1" d="m1129.04,145.84c2.18-.03,10.19.03,12.21.08.08-1.77.13-3.38.12-4.73-1.56,0-4.01-.12-5.61-.08,1.74-13.93,3.45-27.91,5.29-41.91-1.37-.15-3.37-.39-4.74-.54-1.03,8.11-2.13,17.58-3.25,25.69-1.15-8.4-2.53-17.34-3.53-25.76-1.71.31-3.35.57-4.73.65,1.9,14.05,3.85,27.77,5.76,41.86-1.62-.01-4.15-.12-5.79-.08v4.73c1.42,0,2.85,0,4.28.08Z"/>
    <path class="cls-1" d="m1123.38,232.83c2.89,3.68,7.27,6.3,10.86,9.28.8-1.13,1.95-2.76,2.88-3.77-3.43-3.43-12.7-6.99-10.14-12.96,1.96-3.32,5.99-4.77,8.82-7.17,12.24-9.44,1.24-19.08-8.3-24.43-.68,1.42-1.53,2.87-2.46,4.12,31.02,17.57-11.95,16.36-1.66,34.94Z"/>
    <path class="cls-1" d="m1145.38,325.01c1.79-2.48,4.16-5.75,6.03-8.15-1.23-.88-2.45-1.81-3.7-2.68-2.45,3.44-4.95,6.75-7.41,10.17-4.43-7.55-9.72-15.22-13.95-22.9h-1.6c-3.28,4.9-6.47,9.88-9.65,14.82,1.35.91,2.61,1.74,3.67,2.39,1.89-2.79,4.8-7.26,6.59-10.03,4.59,7.44,9.44,15.21,13.96,22.64h1.37c1.56-2.07,3.14-4.23,4.68-6.26Z"/>
    <path class="cls-1" d="m1121.32,426.03c-2.74-4.99-5.66-10.44-8.34-15.42,3.71-7.22,7.69-14.64,11.22-21.96-1.33-.54-2.7-1.24-3.93-1.97-4.02,7.98-8.26,15.98-12.35,24,4.37,7.7,8.25,15.52,12.64,23.19l3.8-2.11c-.98-1.91-1.99-3.82-3.04-5.73Z"/>
    <path class="cls-1" d="m1158.27,410.63c-4.05-7.95-7.82-15.96-11.78-23.96-1.24.77-2.67,1.31-3.92,2.08,3.59,7.38,7.34,14.95,10.9,22.34-3.64,6.88-7.1,13.82-10.8,20.66,1.46.77,2.84,1.5,3.98,2.14,3.94-7.61,7.9-15.25,11.88-22.81l-.26-.46Z"/>
    <path class="cls-1" d="m6.18,49.29c-.83-22.72,24.47-26.43,42.11-25.91V3.41c-12.55-.05-34.33.09-46.69.08v4.73c11.87.02,29.96-.12,41.95-.08v10.62C23.65,18.34-.14,26.31,1.44,50.26h4.7l.04-.96Z"/>
    <path class="cls-1" d="m38.59,145.28c9.77-2.47,12.58-16.09,5.39-22.7-5.31-6.77-30.29-2.78-37.57-3.78v-19.38H1.68v24.11c4.98.86,35.85-2.3,39.04,2.44,4.71,4.42,2.64,13.44-3.77,14.95.54.58-34.79.19-35.5.3v4.73c2.47-.24,35.89.64,37.15-.67Z"/>
    <path class="cls-1" d="m44.9,196.22c-2.72,14.3-38.7,14.48-40.05-.8H0c.18,11.44,13.88,15.82,23.48,16.06l-.9,1.74h0c-3.22,6.69-11.61,14.44-6.44,22.34,3.94,6.37,13.77,6.22,17.54-.25,5.13-8.58-4.37-16.25-7.4-23.81,9.12-.13,23.52-4.77,23.34-16.09h-4.55l-.16.8Zm-17.8,26.25c13.12,18.5-20.14,17.54-2.26-3.65l2.26,3.65Z"/>
    <path class="cls-1" d="m41.07,331.22c-3.93,3.89-34.41,1.28-39.63,2v4.73c8.5-.96,35.62,2.62,42.64-3.03,6.7-5.34,4.34-16.56-2.98-20.11,7.48-3.63,9.81-15.53,2.48-20.46-6.65-5.15-34.17-1.78-42.14-2.69v4.73c5.94,1.08,36.78-2.8,40.72,3,7.84,19.84-31.59,11.32-40.72,13.05v4.73h29.98c.1,0,.58.03,2.27.15,6.64-.16,13.41,8.73,7.38,13.9Z"/>
    <path class="cls-1" d="m47.73,425.99c-1.05-10.44-10.87-17.37-20.93-17.53v-21.05h-4.73v20.44c-10.53-.69-17.18-10.32-16.05-20.44H1.29c-1.26,12.79,7.78,24.51,20.78,25.36v21.48h4.73v-21.14c11.64.1,17.77,10.4,16.92,21.14h4.69c-.1-2.76-.32-5.55-.68-8.26Z"/>
    <path class="cls-1" d="m32.68,488.07h15.53v-4.73c-14.09-.06-32.51.22-46.71,0-1.52,42.48,41.97,10.31,41.89,46.92h4.76c-1.22-40.7-40.11-11.66-41.8-42.11,5.7.02,20.89-.01,26.33-.08Z"/>
    <path class="cls-1" d="m43.55,602.16c1.64,24.32-36.56,26.33-37.42,1.96,13.87-4.11,28.17-8.53,42-12.61.02-1.21-.01-2.39-.19-3.34-15.08-2.84-30.78-6.03-45.85-8.81-.41,1.44-.65,3.08-1.01,4.59,11.31,2.11,22.73,4.47,34.03,6.53-9.13,2.71-24.5,7.51-33.84,10.17-1.61,34.06,48.22,34.16,47.14.56h-4.8l-.05.95Z"/>
    <path class="cls-1" d="m288.21,50.1l.87-.1c-1.82-15.44,12.12-23.62,18.01-35.96,2.11,3.88,4.11,7.76,6.31,11.65-6.99,6.03-13.58,14.84-11.79,24.57,9,.06,19.87-.21,28.82-.16l.74-1.48c-3.83-7.18-7.95-14.76-11.9-21.97,6.52-5.97,11.94-13.89,11.54-23.09h-4.72c.2,7.43-3.96,13.8-9.17,18.76-3.3-6.17-6.68-12.26-10-18.5-.93.14-2.21.54-3.11.7.04,18.51-22,23.28-19.45,45.85,1.25-.19,2.68-.19,3.85-.28Zm27.5-20.09c2.75,5.1,5.63,10.23,8.35,15.37-5.7.08-12.15.15-17.87.15.82-6.17,4.98-11.5,9.52-15.52Z"/>
    <path class="cls-1" d="m289.1,145.2c-.76-9.79,4.04-21.32,15.5-20.24v21.22h4.73v-21.53c13.38-.18,23.04-12.16,21.72-25.24h-4.71c.94,10.39-6.03,20.51-17.01,20.37v-20.45h-4.73v20.74c-14.46-.72-21.48,13.09-20.23,26.1h4.71l.02-.98Z"/>
    <path class="cls-1" d="m284.43,241.97l.29.29h46.11l.73-1.47c-7.58-15.03-15.32-30.8-22.96-45.77h-1.98c-7.64,15.17-15.18,30.63-22.96,45.69.19.39.47.99.76,1.25Zm6.23-4.44c5.66-11.35,11.32-22.6,16.99-33.93,5.68,11.26,11.32,22.63,16.98,33.93h-33.97Z"/>
    <path class="cls-1" d="m327.73,292.34c-1.8,8.9-11.87,14.21-20.49,13.84l-.05.06c-7.72.09-19.28-5.85-19.5-14.83h-4.88c.56,10.31,11.17,18.22,20.87,19.22-6.56,8.22-13.17,16.8-19.8,24.95,1.35,1.14,2.64,2.18,3.79,2.95,6.71-8.52,13.24-16.75,20.07-25.4,6.61,8.41,13.51,17.17,20.16,25.55,1.16-1.01,2.45-1.96,3.62-3.01-6.53-8.32-13.13-16.65-19.68-24.98,9.5-1.32,20.47-8.88,20.62-19.28h-4.66l-.07.92Z"/>
    <path class="cls-1" d="m331.13,408.88c-.03-5.74-.11-15.54-.08-21.45-9.6-.79-20.1,2.49-24.05,12.03-3.62-8.6-13.54-13.51-22.64-11.76-.1,7.27-.09,19.87-.16,27.1h4.73c.09-4.96.06-17.6.1-22.71,9.77.18,15.33,9.52,16.08,18.36,1.03.25,2.57.22,3.65.21.94-9.58,6.99-18.87,17.55-18.54.02,10.14.12,27.04.08,37.33h-42.03v4.73h46.84c-.06-4.58-.1-20.46-.08-25.3Z"/>
    <path class="cls-1" d="m331.13,527.19c-14.01-13.82-30.55-30.11-44.64-44-.75.21-1.55.57-2.29.81-.03,12.94.12,33.06.08,46.02h4.73c.05-10.42-.08-27.48-.08-37.75,12.35,12.24,25.09,24.71,37.45,36.93v.31l.08.08v.66c1.38.02,3.37-.03,4.73-.16v-1.43l-.08-.08v-1.41Z"/>
    <path class="cls-1" d="m329.9,579.6c-.33-.07-.74-.23-1.04-.33-14.58,14.24-29.38,28.84-43.96,43.08-.23.31-.56.56-.69.94,0,0,0,2.96,0,2.96h4.73v-1.21c12.28-11.98,25.27-24.86,37.45-36.71v37.84h4.73v-45.91c-.39-.26-.74-.52-1.23-.67Z"/>
    <path class="cls-1" d="m563.32,33.87c-.04,4.76.1,11.61.08,16.31h4.73c-.01-6.5-.03-13.76-.16-20.22-1.62-13.03,4.44-21.85,18.14-21.81,25.46.32,18.12,24.81,19,42.03h4.73c-.54-10.44,1.47-21.8-.91-32.02-5.57-17.46-32.54-19.83-42.72-5.46-4.26,6.37-2.69,13.96-2.9,21.17Z"/>
    <path class="cls-1" d="m573.9,127.46c11.08,6.27,23.05,12.87,34.03,19.13.58-1.29,1.63-2.98,2.24-4.24-12.85-7.13-25.75-14.4-38.63-21.6,12.85-6.08,25.85-11.97,38.64-18.05-.14-1.11-.48-2.22-.68-3.28h-46.43v4.73h32.9c-10.58,4.97-22.36,10.31-32.9,15.37v1.96c3.56,1.94,7.17,3.93,10.82,5.98Z"/>
    <path class="cls-1" d="m584.7,233.7c2.83,12.22,22.46,10.88,25.05-.6.66-11.83.15-25.76.02-37.68h-4.68c.16,9.63.14,20.51.18,30.14.19,4.14.6,9.17-4,10.99-3.21,1.43-7.84,1.51-10.43-1.11-6.54-11.07,5.71-38.85-14.93-39.94-14.87.04-12.38,19.21-12.44,29.28-.04,3.34.18,13.78.08,17.25h4.73c.01-3.57.04-13.87-.08-17.25.41-5.52-1.31-16.83,2.03-21.65,2.8-4.68,10.56-3.49,12.4,1.53,3.21,6.5.16,22.3,2.07,29.04Z"/>
    <path class="cls-1" d="m586.39,300.81c-7.91,3.82-15.75,7.54-23.63,11.38.74,1.56,1.43,3.01,2.04,4.2,13.57-6.34,26.94-12.94,40.47-19.44.03,11.78-.12,29.47-.08,41.31h4.73c-.04-13.18.12-33.55.08-46.77-9.9-.03-37.48.02-46.92.08v4.73c9.99.02,22.79-.12,32.79-.08-3.16,1.53-6.37,3.06-9.49,4.58Z"/>
    <path class="cls-1" d="m605.5,410.24c.43,9.83-6.47,19.25-16.83,19.1-.05-12.42.09-29.6-.21-41.92h-4.7c.17,12.44.17,29.43.17,41.97-10.83.26-16.94-10.17-15.97-20.09h-4.76c-1.17,13.62,8.79,26.32,23.13,24.81,14.28,1.2,24.84-10.99,24-24.81h-4.79l-.05.95Z"/>
    <path class="cls-1" d="m563.22,483.41c-1.11,12.21,8.49,22.55,20.61,23.16-11.61.83-20.93,11.98-20.58,23.6h4.83c-.34-9.19,6.6-17.81,15.79-18.89v18.89h4.73v-18.82c8.92,1.09,17.36,9.33,16.59,18.82h4.78c.52-12.12-9.64-22.35-21.38-23.57v-.09c12.08-.77,22.59-10.48,21.09-23.11h-4.71c1.09,10.06-6.64,17.62-16.39,18.31v-18.23h-4.73v18.34c-9.77-.71-16.95-8.73-15.89-18.42h-4.76Z"/>
    <path class="cls-1" d="m603.86,586.49c-4.83-2.61-9.53-5.19-14.37-7.73-.66,1.39-1.55,2.76-2.21,4.19,4.9,2.61,9.67,5.19,14.54,7.81-4.36,2.41-8.94,4.96-13.36,7.31-.06,2.85.1,7.31.08,10.12.23,18.91-22.22,17.12-20.87-1.35h-4.63c-1.73,24.81,30.55,26.36,30.23,1.39.03-2.09-.09-5.26-.08-7.32,5.52-3.1,11.44-6.09,16.8-9.33v-1.75c-1.68-.93-4.49-2.53-6.14-3.33Z"/>
    <path class="cls-1" d="m845.36,49.14c14.22-14.02,28.29-29.4,42.53-43.44-.42-.74-.67-1.62-1.19-2.29-11.65,0-34.01.13-45.91.08v4.73c7.98.03,30.34-.04,37.94-.08-12.75,13.05-25.32,26.21-38.1,39.2v2.91h4.73v-1.12Z"/>
    <path class="cls-1" d="m850.68,112.44l10.04,10.2c-6.2,6.26-13.66,14.53-20.17,20.51v3.11h4.81v-1.06c6.2-6.38,12.5-12.78,18.68-19.14,5.95,6.06,11.99,12.5,18.07,18.2h-.32l1.1,1.1v.9c.75,0,4.06.03,4.73-.08v-2.82c-6.72-6.71-13.63-13.94-20.3-20.69,6.83-6.96,13.49-13.88,20.44-20.97-.21-.75-.57-1.54-.81-2.28h-45.79c-.47.62-.73,1.45-1.22,2.06,3.58,3.63,7.15,7.28,10.73,10.97Zm-1.49-8.3h29.61c-4.84,4.9-10.2,10.4-14.78,15.13-4.16-4.21-10.77-11.03-14.83-15.13Z"/>
    <path class="cls-1" d="m873.56,215.53c-2.75-6.58-5.45-13.63-8.47-20.11h-2.34c-2.58,6.59-5.67,13.83-8.21,20.39h-13.83v4.73h13.82c2.93,7.05,5.72,14.45,8.23,21.64h2.81c2.28-7.4,5.31-14.46,8.16-21.64h13.83v-4.73h-13.85c-.05-.09-.09-.19-.14-.28Zm-9.42,16.26c-1.8-4.37-3.67-9.29-5.45-13.67,1.65-4.22,3.7-9.04,5.34-13.24,1.92,4.38,3.68,8.85,5.55,13.31-1.81,4.61-3.71,8.98-5.43,13.6Z"/>
    <path class="cls-1" d="m884.8,291.64l-.91-.55c-3.03,5.77-6.88,13.34-9.97,19.14-3.02-6.1-6.32-12.71-9.22-18.82h-2.14c-2.98,6.03-5.9,12.23-8.95,18.22-2.65-5.21-6.58-13.37-9.22-18.47-1.19.6-2.99,1.51-4.19,1.99,7.25,15.1,15.16,30.18,22.4,45.18h2.05c7.74-14.95,15.73-30.09,23.4-45.06-1-.47-2.69-1.28-3.26-1.64Zm-24.39,14.98c1.01-1.96,2.24-4.58,3.19-6.57,2.62,5.12,5.07,10.25,7.6,15.38-2.43,4.76-5,9.64-7.49,14.48-2.15-4.55-5.17-10.33-7.42-14.92,1.13-2.27,3.01-6.01,4.12-8.37Z"/>
    <path class="cls-1" d="m883.54,407.71c-5.85-2.33-11.77-4.66-17.64-6.94v-13.36h-4.73v13.37c-6.74,2.65-13.72,5.14-20.4,7.88-.11.87-.17,1.72-.15,2.47,6.98,2.78,13.65,5.9,20.55,8.78-.04,4,.12,10.26.08,14.27h4.73c.04-3.99-.11-10.25-.08-14.22,7.08-2.7,14.43-5.4,21.5-8.12.1-.9.16-1.77.14-2.53-1.33-.55-2.71-1.1-4-1.59Zm-27.97,4.64c-1.73-.83-3.54-1.51-5.33-2.31,4.46-1.7,8.92-3.42,13.35-5.09,4.71,1.79,9.34,3.73,14.04,5.52-4.61,1.78-9.42,3.54-14.02,5.3-2.66-1.14-5.36-2.3-8.04-3.42Z"/>
  </g>
  <g>
    <path class="cls-2" d="m1206.16,56.68c5.22.09,5.3-8.46,0-8.28-5.3-.18-5.22,8.38,0,8.28Z"/>
    <polygon class="cls-2" points="1205.86 133.34 1210.04 133.34 1211.18 96.1 1204.79 96.1 1205.86 133.34"/>
    <path class="cls-2" d="m1207.99,141.85c-5.26-.18-5.19,7.93,0,7.83,5.12.16,5.2-8.07,0-7.83Z"/>
    <path class="cls-2" d="m1218.78,234.85c-5.16-.14-5.08,7.88,0,7.83,5.21.16,5.28-8.07,0-7.83Z"/>
    <path class="cls-2" d="m1227.25,190.24c-9.05-3.41-22.07-1.57-28.16,6.31l4.03,3.04c5.87-8.17,26.18-9.5,26.75,3.12-.32,10.23-14.89,12.56-13.91,23.64h5.62c-.21-8.85,9.99-11.43,12.88-18.89,2.83-6.53-.1-14.81-7.22-17.21Z"/>
    <rect class="cls-2" x="1202.67" y="310.55" width="19.91" height="4.71"/>
    <path class="cls-2" d="m1217.4,377.78h-4.56c-10.52,17.94-10.45,44.74,0,62.71h4.56c-10.37-18.68-10.37-44.03,0-62.71Z"/>
    <path class="cls-2" d="m1250.77,391.82c-1.34-5.38-3.28-10.06-5.83-14.04h-4.56c10.48,18.64,10.48,44.07,0,62.71h4.56c8.46-13.63,9.56-33.14,5.83-48.68Z"/>
    <path class="cls-2" d="m98.5,41.8h31.25l6.69,14.96h6.24L117.08.76h-5.84l-25.6,56h6.16l6.69-14.96Zm15.63-34.92l13.48,30.12h-26.96l13.48-30.12Z"/>
    <path class="cls-2" d="m139.24,129.76c-2.03-3.15-5.64-5.17-9.44-5.91,9.75-2.89,11.74-17.73,3.48-23.33-6.92-6.03-29.64-3.12-38.68-3.76v56c16.53-.53,56.79,5.67,44.64-23Zm-20.88-28.12c11.25-1.39,19.55,10.07,10.44,17.76-5.06,4.15-21.77,2.1-28.28,2.56v-20.32h17.84Zm13.2,43.72c-5.44,4.11-24.08,2.06-31.04,2.52v-21.04c7.06.48,25.52-1.61,31.04,2.52,5.26,2.92,5.21,13.1,0,16Z"/>
    <path class="cls-2" d="m102.28,204.16c8.7-8.63,24.79-9.09,33.44.04l3.76-3.76c-16.64-17.75-51.2-4.9-49.84,20.32-1.37,25.28,33.22,38.09,49.84,20.24l-3.76-3.76c-22.18,21.26-55-10.7-33.44-33.08Z"/>
    <path class="cls-2" d="m133.12,292.32c-8.53-5.4-28.57-3.12-38.52-3.56v56c10.08-.5,29.88,1.89,38.52-3.56,18.98-9.08,18.98-39.8,0-48.88Zm5.4,36.32c-6.8,13.22-25.39,10.99-38,11v-45.76c7.97.32,22.72-1.37,29.48,2.92,11.4,5.49,14.7,21.37,8.52,31.84Z"/>
    <polygon class="cls-2" points="133 389.88 133 384.76 94.6 384.76 94.6 440.76 134.21 440.76 134.21 435.64 100.52 435.64 100.52 414.84 129.48 414.84 129.48 409.8 100.52 409.8 100.52 389.88 133 389.88"/>
    <polygon class="cls-2" points="133 485.88 133 480.76 94.6 480.76 94.6 536.76 100.52 536.76 100.52 513 129.48 513 129.48 507.88 100.52 507.88 100.52 485.88 133 485.88"/>
    <path class="cls-2" d="m102.32,588.16c8.85-8.64,25.16-9.1,34.04-.04l3.68-3.76c-16.74-17.57-51.76-5.03-50.4,20.4-1.14,25.46,32.26,37.13,50.08,21.36v-21.36h-5.68v18.83c-23.63,16.34-52.3-14.01-31.72-35.43Z"/>
    <polygon class="cls-2" points="392.21 30.92 427.25 30.92 427.25 56.76 433.09 56.76 433.09 .76 427.25 .76 427.25 25.72 392.21 25.72 392.21 .76 386.29 .76 386.29 56.76 392.21 56.76 392.21 30.92"/>
    <rect class="cls-2" x="386.29" y="96.76" width="5.92" height="56"/>
    <path class="cls-2" d="m404.49,244.84c7.57-6.67,2.91-42.81,4.12-52.08h-26.32v5.12h20.48v33.92c1.1,15.02-16.29,15.6-22.48,5.44l-3.44,4c5.19,8.98,21,10.74,27.64,3.6Z"/>
    <polygon class="cls-2" points="426.53 344.76 433.57 344.76 407.67 314.15 431.89 288.76 425.09 288.76 392.21 322.57 392.21 288.76 386.29 288.76 386.29 344.76 392.21 344.76 392.21 330.03 403.67 318.42 426.53 344.76"/>
    <polygon class="cls-2" points="386.29 384.76 386.29 440.76 423.57 440.76 423.57 435.64 392.21 435.64 392.21 384.76 386.29 384.76"/>
    <polygon class="cls-2" points="415.48 522.25 391.17 480.76 386.29 480.76 386.29 536.76 391.97 536.76 391.97 492.23 413.97 529.64 416.77 529.64 438.77 491.97 438.77 536.76 444.45 536.76 444.45 480.76 439.57 480.76 415.48 522.25"/>
    <polygon class="cls-2" points="427.25 622.18 391.17 576.76 386.29 576.76 386.29 632.76 392.21 632.76 392.21 587.35 428.21 632.76 433.09 632.76 433.09 576.76 427.25 576.76 427.25 622.18"/>
    <path class="cls-2" d="m670.77,49.12c28.32,25.25,68.6-11.79,42.08-40.76-28.07-25.25-68.68,12.05-42.08,40.76Zm-.76-29.6c12.6-27.69,55.15-10.42,43.52,18.48-12.49,27.75-55.17,10.32-43.52-18.48Z"/>
    <path class="cls-2" d="m700.56,99.04c-6.84-3.65-25.31-1.9-33.2-2.28v56h5.92v-17.68c7.34-.25,20.99,1.06,27.28-2.32,14.18-5.54,14.19-28.24,0-33.72Zm.36,27.2c-5.1,5.17-20.39,3.34-27.64,3.64v-28c7.31.32,22.5-1.56,27.64,3.68,5.78,4.41,5.85,16.27,0,20.68Z"/>
    <path class="cls-2" d="m710.24,255.16c-4.72,0-8.79-3.02-12.08-6.5,34.05-6.49,28.45-57.29-6.32-56.38-38.2-.5-39.18,56.18-1.02,56.94,8.05,10.04,23.78,15.75,32.94,4.26l-2.88-3.44c-2.93,3.41-6.48,5.12-10.64,5.12Zm-35.28-17.8c-21.27-23.01,10.92-53.94,33.64-33.2,21.12,23.05-10.8,53.93-33.64,33.2Z"/>
    <path class="cls-2" d="m708.44,318.16c5.66-8.97,2.6-23.12-7.88-27.12-6.88-3.68-25.29-1.88-33.2-2.28v56h5.92v-17.76c3.39-.07,16.44.21,19.55-.26l12.77,18.02h6.48l-13.69-19.22c4.14-1.3,7.89-3.94,10.05-7.38Zm-20.28,3.8h-14.88v-28.08c7.31.33,22.5-1.56,27.64,3.68,10.07,9.56,1.96,26.25-12.76,24.4Z"/>
    <path class="cls-2" d="m691.4,434.88c-8.12,3.09-20.83.69-27.08-5.48l-2.32,4.56c12.3,13.41,50.62,8.17,39.8-15.12-6.99-9.72-22.41-6.6-30.72-14.08-9.12-16.59,18.88-19.01,28.28-10.8l2-4.72c-13.87-10.53-46.43-4.12-36.12,17.64,6.91,9.88,22.46,6.54,30.72,14.2,3.98,4.49,1.37,11.98-4.56,13.8Z"/>
    <polygon class="cls-2" points="678.24 536.76 684.16 536.76 684.16 485.88 703.85 485.88 703.85 480.76 658.56 480.76 658.56 485.88 678.24 485.88 678.24 536.76"/>
    <path class="cls-2" d="m707.12,608.6c1.89,17.88-18.3,25.24-29.84,14.64-7.74-6.84-3.42-36.86-4.48-46.48h-5.92c1.27,19.87-7.8,57.29,23.04,56.48,30.76.85,21.68-36.72,22.96-56.48h-5.76v31.84Z"/>
    <polygon class="cls-2" points="961.81 56.76 986.61 .76 980.61 .76 959.02 49.5 937.57 .76 931.17 .76 955.97 56.76 961.81 56.76"/>
    <polygon class="cls-2" points="994.85 145.25 978.29 96.76 972.85 96.76 956.16 145.02 939.97 96.76 933.89 96.76 952.77 152.76 958.93 152.76 975.41 105.08 991.81 152.76 998.05 152.76 1016.93 96.76 1011.25 96.76 994.85 145.25"/>
    <polygon class="cls-2" points="980.53 192.76 974.13 192.76 957.32 215.65 940.45 192.76 933.65 192.76 953.57 219.99 932.29 248.76 939.09 248.76 957.06 224.14 975.17 248.76 982.05 248.76 960.7 219.8 980.53 192.76"/>
    <polygon class="cls-2" points="934.53 344.76 980.45 344.76 980.45 339.64 942.46 339.64 979.49 292.84 979.49 288.76 935.09 288.76 935.09 293.88 971.64 293.88 934.53 340.68 934.53 344.76"/>
    <polygon class="cls-2" points="975.73 384.76 956.53 416.18 937.33 384.76 931.01 384.76 953.41 421.42 953.41 440.76 959.25 440.76 959.25 421.42 981.65 384.76 975.73 384.76"/>
  </g>
</svg>